<svg width="800" height="600" xmlns="http://www.w3.org/2000/svg">

 <g>
  <title>Layer 1</title>
  <path d="m712.24487,446.93878c-712.24487,-446.93878 -712.24487,-446.93878 -712.24487,-446.93878l713.26526,445.91837l0,1.02042l-1.02039,0" id="svg_16" stroke="#000" fill="none"/>
  <path stroke-width="31" d="m589.7959,81.63266c1.02039,0 0,0 -1.02039,0c-1.02045,0 -3.06122,0 -5.10205,0c-3.06122,0 -7.14288,1.02041 -10.2041,1.02041c-4.0816,0 -8.16327,1.02041 -13.26532,1.02041c-6.12244,0 -13.21765,0.50922 -21.42853,1.02041c-8.14752,0.50725 -16.35034,-0.21521 -26.53064,1.02041c-7.16281,0.86938 -15.3241,0.51406 -22.44897,1.02041c-7.1972,0.51149 -16.28415,1.52983 -25.51019,2.04081c-8.15079,0.45143 -19.35837,0.50983 -32.65308,1.02041c-14.27518,0.54823 -30.61224,0 -44.89795,0c-13.26532,0 -24.48981,1.02041 -34.69388,1.02041c-9.18369,0 -16.26324,-0.50846 -22.44897,-1.02041c-6.10159,-0.50498 -12.19055,-0.50892 -19.38776,-1.02041c-7.12488,-0.50635 -13.26532,0 -19.38776,0c-6.12244,0 -9.18369,0 -13.26532,0c-1.02039,0 -2.0408,0 -3.06122,0c-1.02042,0 -2.0408,0 -3.06122,0c-1.02042,0 -1.91833,0.49152 -9.18369,2.04082c-14.11342,3.00961 -32.63055,2.5508 -49.99998,3.06123c-22.4393,0.65941 -43.87755,1.02041 -59.18367,1.02041c-9.18369,0 -13.26532,0 -12.2449,0c1.0204,0 2.04082,0 3.06122,0c1.02042,0 2.04082,0 3.06123,0c1.0204,0 2.7484,0.46817 4.08163,1.02041c1.88547,0.78098 4.92218,0.49618 7.14285,1.02041c2.97932,0.70332 5.06512,1.13864 8.16327,2.04082c4.03947,1.17629 8.16325,3.06123 12.24489,5.10204c6.12245,3.06122 12.51898,7.77087 21.42857,14.28572c10.54842,7.71319 23.39606,18.46132 37.7551,29.59183c17.25952,13.37885 32.83144,27.30217 50.00002,39.79593c16.50137,12.00821 31.04297,21.73755 44.89795,30.61224c14.78308,9.46918 31.29941,20.04594 46.93878,27.55101c14.01245,6.72433 23.82565,9.11296 34.69388,13.26532c6.39429,2.44302 9.05972,3.56476 12.2449,4.08163c2.01443,0.3269 6.12244,3.06119 6.12244,1.02039c0,-1.02042 -1.31924,0.29886 -2.0408,1.02042c-0.72156,0.72156 -2.04083,0 -3.06125,0c-1.02039,0 -2.0408,1.02042 -3.06122,1.02042c-1.02042,0 -3.1431,0.31711 -6.12244,1.02042c-2.22067,0.5242 -6.20093,1.76678 -10.2041,3.06122c-5.22849,1.69064 -11.22449,4.08163 -17.34692,7.14285c-10.20407,5.10205 -23.74731,10.65512 -36.73471,17.34692c-14.62619,7.53622 -28.43115,14.50766 -42.85712,23.46939c-15.16232,9.41919 -25.02664,15.06238 -37.75513,22.44901c-11.84079,6.87146 -25.58681,15.18713 -36.73468,22.44897c-9.24828,6.02441 -13.56306,10.98358 -20.40816,13.26529c-2.73805,0.91269 -1.74194,2.33969 -1.02042,3.06122c0.72154,0.72156 2.04082,0 3.06123,0c1.0204,0 2.0408,0 6.12244,0c3.06123,0 9.18953,-0.32736 18.36736,0c14.313,0.51053 27.81511,-0.72507 46.93877,3.06125c17.73737,3.51184 36.90527,5.14584 57.14285,9.18365c20.62967,4.11603 43.69299,9.35727 66.32654,12.2449c27.40439,3.49631 55.16498,4.15723 77.55103,6.12244c23.57755,2.06982 33.67349,4.08163 38.77548,4.08163c2.04083,0 0.72156,-0.72156 0,0c-0.72156,0.72156 -1.09808,0.62994 -2.04077,1.02042c-1.33325,0.55225 -3.06122,3.06122 -5.10205,4.08163c-4.08167,2.04083 -11.86801,6.4841 -24.48981,9.18369c-20.05634,4.28973 -43.87756,6.12244 -68.36734,10.20407c-30.61224,5.10205 -65.27914,11.33722 -94.89798,18.36734c-30.58481,7.25937 -57.24738,14.9856 -79.59183,22.44897c-20.50829,6.8501 -40.03171,12.56577 -53.06122,17.34695c-7.29552,2.67709 -10.59886,5.01797 -13.2653,6.12244c-0.94273,0.3905 -0.72154,0.29886 0,1.02042c0.72153,0.72153 2.06812,-0.23444 3.06122,0c2.22067,0.52423 4.05124,1.18634 9.18369,2.0408c15.23193,2.53589 39.84123,5.76453 73.46938,10.2041c42.91983,5.66626 97.92035,11.73224 147.9592,15.30609c49.96634,3.56866 86.72629,5.26404 124.48981,7.14288c22.4444,1.1167 34.63055,2.54926 40.81628,3.06122c2.03387,0.16833 1.74194,0.29889 1.02045,1.02039c-0.72156,0.72156 -1.31927,0.29889 -2.04083,1.02045c-0.7215,0.7215 -1.02039,-1.02045 -1.02039,-1.02045l-1.02045,0l-1.02039,-1.02039" id="svg_18" stroke="#000" fill="none"/>
  <path d="m978.57141,505.10205c-978.57141,-505.10205 -978.57141,-505.10205 -978.57141,-505.10205l978.57141,506.12244l1.02039,0l0,1.02042" id="svg_19" stroke="#000" fill="none"/>
 </g>
</svg>