<?xml version="1.0" encoding="utf-8"?>
<svg width="800" height="600" xmlns="http://www.w3.org/2000/svg">
  <path fill="rgb(255,0,0)" stroke-width="0" d="M 37.252 119.009 C 40.219 118.001 43.952 116.517 48.941 120.344 C 50.693 121.687 52.716 123.799 54.95 126.535 C 55.75 126.127 56.697 126.032 58.791 126.475 C 68.348 128.499 111.533 160.035 125.211 158.531 C 134.592 157.499 135.077 142.813 141.412 138.23 C 141.578 138.113 141.742 137.994 141.91 137.879 C 141.947 137.584 141.99 137.302 142.045 137.034 C 142.653 133.939 144.172 132.414 146.595 131.662 C 148.427 131.093 151.94 131.261 154.993 131.902 C 157.031 131.37 158.867 131.109 160.258 131.21 C 163.23 131.427 165.247 133.514 166.606 135.497 C 168.087 137.656 168.933 141.583 168.35 143.949 C 167.813 146.119 166.01 147.191 163.8 149.32 C 163.024 150.067 162.014 150.853 160.878 151.683 C 164.939 167.584 187.154 209.117 198.615 240.055 C 211.816 275.69 226.371 352.789 235.897 355.516 C 242.84 357.502 245.093 321.215 252.104 304.496 C 259.262 287.426 267.696 272.703 278.606 254.191 C 291.501 232.308 309.993 201.376 325.994 181.229 C 339.587 164.113 355.643 145.444 367.217 138.918 C 374.384 134.878 381.513 134.857 386.223 135.514 C 389.661 135.994 392.142 137.994 393.939 139.815 C 395.605 141.503 397.053 143.556 396.946 145.871 C 396.808 148.792 394.356 154.178 391.239 156.049 C 388.305 157.81 384.005 154.534 379.157 156.671 C 379.308 162.631 379.058 169.521 383.009 171.017 C 391.762 174.327 422.353 152.475 434.176 152.307 C 435.336 152.29 436.486 152.369 437.61 152.528 C 443.447 148.592 448.738 146.316 453.073 146.492 C 457.362 146.666 462.449 150.181 463.635 153.235 C 464.908 156.509 462.026 162.44 459.407 165.837 C 456.821 169.189 452.994 169.07 448.117 173.543 C 439.468 181.476 425.928 196.64 411.659 215.305 C 391.484 241.693 364.034 278.869 338.442 322.917 C 319.953 354.742 295.072 412.168 273.729 458.502 C 293.728 463.797 319.771 474.78 338.527 478.926 C 354.674 482.495 367.568 479.96 381.181 484.216 C 395.124 488.576 412.986 496.301 421.108 505.136 C 428.155 512.804 431.318 525.16 430.526 532.346 C 429.885 538.164 426.701 542.492 420.873 546.093 C 413.002 550.957 401.886 553.408 382.97 555.312 C 350.662 558.565 276.02 558.413 231.066 554.838 C 192.407 551.765 156.576 546.362 127.694 538.036 C 103.574 531.08 77.517 521.581 66.991 511.464 C 59.661 504.417 57.518 495.722 59.132 488.488 C 60.882 480.633 70.968 472.225 79.36 466.425 C 87.937 460.496 98.139 456.392 110.258 453.515 C 124.206 450.202 141.564 449.886 159.328 449.238 C 167.597 448.935 176.828 448.72 186.196 448.694 C 174.564 412.823 161.721 372.304 150.645 346.141 C 132.526 303.338 114.919 271.415 95.068 234.696 C 75.172 197.889 32.687 139.621 31.385 125.571 C 30.932 120.685 34.496 119.945 37.252 119.009 Z M 285.581 288 C 285.355 288.422 285.135 288.839 284.917 289.249 C 285.676 288.579 286.622 287.98 287.651 287.458 C 291.242 285.629 304.084 286.195 304.63 284.634 C 305.063 283.39 297.87 281.849 296.201 279.722 C 294.642 277.734 293.6 274.435 294.511 272.474 C 295.487 270.376 300.903 269.762 302.511 267.745 C 303.975 265.907 302.235 262.439 304.27 261.138 C 306.967 259.413 319.661 261.734 319.987 260.709 C 320.281 259.783 310.008 257.794 308.821 255.767 C 307.9 254.196 308.432 251.406 310.634 250.366 C 314.47 248.554 334.921 253.047 336.699 251.859 C 337.452 251.355 336.424 250.499 335.221 249.433 C 332.641 247.144 319.502 242.343 317.655 238.998 C 316.924 237.676 316.844 235.967 317.374 234.585 C 305.304 253.35 293.251 273.581 285.581 288 Z M 266.972 331.163 C 265.002 337.034 263.08 344.668 261.203 352.898 C 266.707 349.924 284.858 347.799 285.401 344.656 C 285.916 341.674 272.478 337.944 269.914 334.847 C 268.183 332.754 267.944 330.55 268.277 328.806 C 268.589 327.176 269.718 325.599 271.512 324.625 C 273.773 323.397 280.768 324.787 281.7 322.93 C 282.729 320.876 276.049 314.432 275.742 312.022 C 275.558 310.588 275.742 310.011 276.977 309.025 C 279.216 307.235 290.906 306.556 291.796 303.766 C 292.653 301.081 283.259 295.723 283.099 292.829 C 283.098 292.793 283.097 292.757 283.096 292.722 C 275.734 306.892 272.218 315.517 266.972 331.163 Z M 226.321 412.143 C 223.582 420.237 219.453 429.464 220.119 430.672 C 220.569 431.484 221.959 429.358 223.464 428.901 C 225.481 428.29 229.615 426.273 231.623 427.787 C 234.558 430 235.818 441.448 235.875 446.506 C 235.891 448.002 235.482 449.616 235.001 451.097 C 235.99 451.214 236.969 451.336 237.941 451.463 C 240.349 447.001 243.452 440.751 245.794 438.786 C 248.06 436.886 250.631 435.779 252.532 436.452 C 254.689 437.214 257.424 440.085 257.671 444.338 C 257.799 446.517 256.828 450.111 255.338 454.326 C 256.068 454.471 256.801 454.619 257.54 454.772 C 267.703 431.184 278.365 400.559 289.069 372.732 C 288.955 372.826 288.836 372.916 288.713 373.002 C 284.696 375.792 262.665 374.186 262.151 375.721 C 261.733 376.967 275.689 378.317 277.423 380.708 C 278.725 382.5 277.863 385.586 275.665 387.315 C 272.344 389.926 255.604 390.355 254.659 391.901 C 254.165 392.713 256.522 393.742 258.188 394.349 C 260.477 395.182 265.149 395.728 267.825 395.661 C 269.981 395.606 271.783 393.84 273.248 394.516 C 274.953 395.303 277.823 399.159 276.965 401.183 C 275.814 403.892 262.456 407.151 262.227 408.247 C 262.096 408.87 265.397 408.012 266.36 408.896 C 267.59 410.024 269.452 413.748 268.024 415.541 C 265.895 418.214 253.762 421.134 248.413 420.745 C 244.217 420.439 240.012 418.163 237.995 415.882 C 234.348 415.693 229.017 413.932 226.321 412.143 Z M 312.324 320.22 C 314.01 317.249 315.717 314.289 317.443 311.342 C 309.868 312.961 287.452 313.341 286.854 315.759 C 286.28 318.091 304.716 322.254 307.79 325.025 C 308.346 325.526 308.704 326.022 308.935 326.508 C 310.068 324.306 311.198 322.206 312.324 320.22 Z M 389.327 205.421 C 397.104 195.234 404.579 185.715 411.578 177.512 C 396.181 184.194 377.938 192.631 369.255 194.533 C 374.198 199.733 383.77 209.489 383.504 212.019 C 383.325 213.739 378.821 214.234 377.424 213.759 C 376.207 213.345 377.069 210.928 375.211 210.12 C 371.692 208.592 355.212 208.614 352.622 209.871 C 351.494 210.417 351.429 211.432 352.045 212.274 C 353.151 213.788 361.064 215.754 363.21 217.215 C 364.499 218.094 364.316 218.749 365.371 219.649 C 366.839 220.903 370.425 222.449 371.718 223.935 C 372.491 224.823 373.323 225.814 373.417 226.719 C 379.008 219.066 384.358 211.928 389.327 205.421 Z M 358.138 180.982 C 358.142 179.781 358.314 178.392 358.581 176.902 C 356.363 179.649 354.103 182.547 351.837 185.52 C 353.607 185.577 356.149 186.23 358.553 187.027 C 358.203 185.243 358.133 183.201 358.138 180.982 Z M 224.631 394.544 C 223.024 383.743 214.328 352.093 204.444 319.034 C 202.45 324.22 198.147 331.011 199.411 334.068 C 200.644 337.05 207.627 335.666 209.207 338.995 C 211.586 344.001 203.829 363.595 204.909 365.451 C 205.285 366.093 205.976 364.7 206.936 364.87 C 208.627 365.173 213.174 366.013 214.654 369.172 C 217.307 374.844 210.467 400.674 212.044 402.875 C 212.617 403.674 213.774 402.434 214.73 401.7 C 216.118 400.633 217.188 396.655 219.28 396.328 C 220.583 396.126 222.891 396.51 224.888 397.451 C 224.879 396.646 224.802 395.693 224.631 394.544 Z M 181.085 245.886 C 180.676 244.721 180.259 243.563 179.836 242.409 C 178.121 246.271 175.757 250.785 176.633 252.5 C 177.543 254.285 182.426 252.084 183.557 254.383 C 185.765 258.861 175.211 284.769 176.789 286.835 C 177.584 287.877 180.873 284.494 182.104 283.279 C 183.096 282.302 182.742 281.287 184.024 280.289 C 185.332 279.27 188.455 277.127 191.15 276.054 C 187.495 264.659 184.038 254.264 181.085 245.886 Z M 147.435 166.005 C 147.307 165.593 147.178 165.182 147.053 164.775 C 144.735 168.602 142.911 172.909 142.414 176.189 C 141.867 179.811 145.912 183.289 144.212 185.846 C 143.565 186.819 142.134 187.822 140.337 188.738 C 139.857 191.04 139.341 193.26 139.811 193.665 C 140.409 194.181 141.827 192.366 143.154 191.896 C 144.679 191.355 147.135 189.853 148.577 190.751 C 150.617 192.019 152.824 197.268 152.508 202.239 C 152.034 209.677 139.37 230.348 140.157 232.219 C 140.508 233.057 142.671 231.075 144.155 229.854 C 146.249 228.132 148.179 224.296 151.337 222.103 C 154.861 219.658 161.903 215.38 164.76 216.228 C 167.123 216.93 168.429 221.05 168.53 224.1 C 168.654 227.854 162.673 236.553 163.642 237.296 C 164.495 237.953 169.319 231.369 172.246 230.767 C 173.179 230.576 174.268 230.614 175.345 230.803 C 164.839 204.945 152.559 182.343 147.435 166.005 Z M 119.676 187.985 C 117.795 185.839 117.797 181.949 116.564 179.518 C 115.491 177.401 115.971 176.561 112.9 174.056 C 107.425 169.588 84.883 156.372 70.431 149.187 C 77.321 160.345 84.8 173.412 92.089 186.341 C 95.063 182.574 101.087 177.873 104.18 177.009 C 106.96 176.232 110.31 177.766 111.79 178.899 C 112.959 179.797 113.293 181.057 113.319 182.531 C 113.354 184.474 110.367 189.18 110.903 189.732 C 111.294 190.136 112.861 188.053 114.245 187.961 C 115.926 187.851 119.265 188.507 120.486 189.838 C 121.783 191.253 120.181 196.38 121.465 196.475 C 122.259 196.533 123.955 194.54 125.873 192.074 C 123.306 191.47 121.187 189.708 119.676 187.985 Z M 173.757 342.782 C 176.265 348.528 178.653 355.08 180.953 362.162 C 185.146 349.65 191.984 333.325 191.089 331.567 C 190.526 330.455 188.405 334.373 186.432 334.526 C 184.04 334.714 178.747 334.543 177.399 331.415 C 174.825 325.438 189.05 293.08 187.9 290.572 C 187.519 289.739 186.376 290.602 185.216 291.747 C 182.362 294.564 175.65 310.881 171.831 313.886 C 169.851 315.444 167.874 315.706 166.41 315.031 C 164.705 314.243 163.097 311.775 162.693 308.364 C 161.986 302.39 169.8 281.378 168.252 279.513 C 167.435 278.525 164.17 281.854 162.939 283.067 C 161.947 284.046 162.222 285.703 161.019 286.059 C 159.445 286.525 154.279 286.584 153.409 284.168 C 151.668 279.331 168.906 250.408 168.231 248.191 C 168 247.428 166.827 248.302 165.546 249.366 C 162.428 251.954 153.964 267.622 149.317 269.063 C 146.478 269.945 142.447 268.741 141.654 265.966 C 140.079 260.455 159.136 230.9 157.793 228.8 C 156.944 227.476 150.532 233.715 147.214 237.117 C 143.509 240.913 140.415 248.663 136.878 250.856 C 134.43 252.375 131.258 252.849 129.402 251.978 C 129.091 251.833 128.785 251.654 128.488 251.44 C 144.212 280.364 160.032 311.332 173.757 342.782 Z M 204.488 448.913 C 204.67 448.919 204.853 448.925 205.035 448.929 C 206.652 442.722 208.705 436.3 208.013 435.358 C 207.449 434.584 206.055 437.036 204.671 437.127 C 203.8 437.184 202.48 437.341 201.242 437.135 C 202.321 441.172 203.401 445.112 204.488 448.913 Z M 223.671 449.949 C 224.226 449.995 224.777 450.045 225.32 450.093 C 226.11 445.68 226.548 442.34 226.077 441.58 C 225.576 440.766 224.533 441.648 223.394 442.755 C 222.39 443.73 221.014 446.474 219.469 449.625 C 220.895 449.723 222.297 449.831 223.671 449.949 Z M 229.072 494.582 C 231.424 494.652 233.845 493.492 236.326 491.295 C 235.872 491.104 235.457 490.835 235.09 490.47 C 233.901 489.288 234.473 485.181 232.769 484.42 C 230.823 483.55 225.285 487.804 223.293 486.725 C 221.261 485.625 220.99 482.111 220.837 477.663 C 220.779 475.924 221.083 473.258 221.576 470.143 C 218.012 469.724 214.636 469.369 211.521 469.09 C 211.303 469.07 211.087 469.051 210.872 469.032 C 216.397 484.288 222.289 494.382 229.072 494.582 Z M 248.45 474.008 C 248.107 473.95 247.763 473.893 247.422 473.837 C 246.411 476.26 245.493 478.521 244.766 480.479 C 245.984 478.495 247.211 476.331 248.45 474.008 Z M 192.602 468.286 C 187.972 468.33 183.245 468.52 177.297 468.711 C 160.714 469.244 133.93 469.202 118.643 472.882 C 106.618 475.778 96.867 481.47 90.484 485.823 C 85.852 488.981 81.796 493.268 81.328 495.358 C 81.078 496.48 81.091 496.625 82.805 497.784 C 88.554 501.676 121.48 515.463 141.319 521.319 C 146.263 522.78 151.266 524.071 156.3 525.228 C 156.073 523.606 156.074 521.954 156.369 520.319 C 157.643 513.237 166.824 501.179 172.437 497.005 C 176.365 494.083 179.859 493.525 184.598 493.526 C 189.054 493.527 197.041 495.449 201.697 497.194 C 201.972 497.156 202.248 497.12 202.526 497.085 C 199.462 488.723 196.121 478.919 192.602 468.286 Z M 200.668 532.818 C 200.898 532.849 201.126 532.88 201.355 532.91 C 196.11 529.738 190.728 525.501 187.865 521.835 C 184.582 517.631 182.392 512.306 183.17 508.531 C 183.77 505.614 185.891 502.873 189.236 500.843 C 188.711 500.757 188.184 500.731 187.657 500.787 C 182.891 501.301 175.869 505.379 172.315 509.654 C 168.642 514.07 164.243 522.53 166.126 527.318 C 177.695 529.597 189.324 531.292 200.668 532.818 Z M 256.956 537.054 C 263.736 537.292 271.722 537.524 280.324 537.716 C 280.038 536.821 280.09 535.716 280.168 534.939 C 280.308 533.504 280.939 532.211 282.717 530.75 C 285.615 528.371 298.044 525.844 298.798 523.097 C 299.378 520.982 295.801 518.725 292.343 516.401 C 289.187 514.278 282.118 511.774 276.281 509.443 C 276.275 509.482 276.269 509.521 276.262 509.561 C 274.957 516.789 269.339 526.662 261.507 531.683 C 258.168 533.825 253.414 535.485 248.269 536.726 C 251.043 536.839 253.926 536.947 256.956 537.054 Z M 365.054 537.045 C 383.135 535.702 400.841 533.764 405.803 530.266 C 408.226 528.557 408.41 526.626 406.904 524.255 C 404.087 519.817 382.489 506.629 378.775 507.078 C 376.79 507.318 378.82 511.69 377.673 513.09 C 376.586 514.417 375.365 515.802 372.305 515.439 C 365.677 514.653 349.088 502.6 334.539 496.953 C 317.738 490.429 296.469 484.055 276.292 479.443 C 272.693 478.62 268.929 477.82 265.075 477.05 C 263.523 480.323 262.001 483.5 260.51 486.567 C 264.527 487.31 269.111 488.663 271.325 490.832 C 273.354 492.822 274.886 495.96 275.757 499.397 C 285.679 502.974 304.671 512.922 308.167 518.382 C 310.909 522.669 309.213 527.707 305.992 531.007 C 303.527 533.531 296.44 536.309 290.459 537.917 C 317.054 538.381 347.047 538.381 365.054 537.045 Z M 209.475 515.448 C 209.541 515.702 209.864 516.02 210.379 516.372 C 210.143 515.881 209.902 515.373 209.658 514.845 C 209.493 515.048 209.424 515.253 209.475 515.448 Z M 243.807 518.236 C 243.802 518.212 243.786 518.185 243.762 518.157 C 243.685 518.284 243.607 518.408 243.529 518.533 C 243.729 518.43 243.827 518.33 243.807 518.236 Z M 191.604 312.297 C 191.954 312.97 193.543 311.752 194.288 311.122 C 195.113 310.421 195.133 308.819 196.206 308.131 C 197.219 307.484 199.24 306.63 200.737 306.753 C 199.574 302.937 198.406 299.134 197.239 295.375 C 194.965 302.528 190.98 311.107 191.604 312.297 Z M 204.503 387.131 C 204.217 386.449 203.624 386.801 203.135 387.115 C 202.193 387.723 201.781 391.4 199.952 392.502 C 197.937 393.715 192.868 394.732 191.109 393.608 C 189.347 392.485 189.248 389.276 189.391 385.759 C 189.615 380.31 196.149 364.524 195.219 362.934 C 194.829 362.268 193.582 363.104 192.534 364.109 C 190.685 365.886 188.054 373.997 185.438 376.933 C 189.934 392.626 194.143 409.768 198.324 425.993 C 199.883 412.377 205.454 389.391 204.503 387.131 Z M 125.686 245.311 C 125.71 238.23 140.969 210.594 140.454 208.13 C 140.327 207.521 139.81 207.65 139.086 208.115 C 136.548 209.738 126.168 228.413 121.594 230.208 C 119.892 230.875 117.848 230.653 116.542 229.789 C 119.588 235.238 122.66 240.781 125.741 246.406 C 125.703 246.058 125.684 245.693 125.686 245.311 Z M 126.55 203.157 C 126.326 202.5 125.101 203.254 123.866 204.331 C 121.518 206.378 115.971 216.575 111.882 221.491 C 113.008 223.487 114.141 225.5 115.275 227.524 C 115.585 222.388 127.086 204.723 126.55 203.157 Z M 110.122 202.975 C 109.936 202.463 109.386 202.598 108.753 202.959 C 107.88 203.459 106.274 206.093 104.572 208.558 C 105.306 209.862 106.033 211.15 106.75 212.418 C 108.511 208.056 110.418 203.788 110.122 202.975 Z M 102.635 188.436 C 102.298 187.78 100.877 188.809 99.951 189.611 C 98.972 190.457 97.965 193.263 96.914 194.924 C 97.629 196.197 98.339 197.464 99.046 198.723 C 101.045 193.803 103.028 189.2 102.635 188.436 Z M 169.489 276.514 C 169.265 276.475 168.039 278.571 168.227 278.91 C 168.364 279.156 169.348 279.184 169.595 278.925 C 169.924 278.582 169.704 276.552 169.489 276.514 Z M 176.815 287.438 C 176.591 287.398 175.365 289.493 175.553 289.834 C 175.689 290.079 176.674 290.108 176.923 289.848 C 177.249 289.506 177.031 287.475 176.815 287.438 Z M 212.071 403.478 C 211.847 403.438 210.62 405.533 210.809 405.873 C 210.946 406.119 211.93 406.147 212.177 405.888 C 212.505 405.545 212.286 403.515 212.071 403.478 Z M 363.167 231.671 C 359.35 231.986 351.424 228.191 350.74 229.125 C 350.1 229.999 355.086 234.16 357.907 236.432 C 359.425 237.656 361.812 238.769 363.947 239.866 C 366.645 236.065 369.309 232.364 371.924 228.77 C 369.844 230.106 365.965 231.441 363.167 231.671 Z M 346.013 245.938 C 345.332 246.359 346.605 247.485 347.489 248.365 C 348.776 249.643 353.073 250.835 353.837 252.651 C 353.992 253.018 354.086 253.452 354.124 253.919 C 355.502 251.914 356.876 249.93 358.246 247.968 C 352.857 246.933 346.883 245.401 346.013 245.938 Z M 340.52 260.935 C 340.321 261.743 344.465 262.985 347.042 264.34 C 348.026 262.875 349.008 261.42 349.988 259.974 C 346.536 260.539 340.755 260 340.52 260.935 Z M 341.003 271.784 C 340.787 272.064 340.958 272.518 341.263 273.048 C 341.618 272.51 341.97 271.971 342.324 271.436 C 341.701 271.433 341.213 271.512 341.003 271.784 Z M 326.977 279.46 C 322.587 279.628 315.781 277.563 314.603 278.117 C 314.115 278.347 314.112 278.819 314.656 279.323 C 316.203 280.76 329.399 283.933 332.062 286.142 C 332.239 286.288 332.398 286.434 332.54 286.578 C 334.286 283.821 336.038 281.083 337.795 278.371 C 334.35 279.017 329.897 279.348 326.977 279.46 Z M 295.528 295.375 C 295.006 297.008 315.789 300.777 319.148 303.466 C 320.147 304.266 320.515 305.112 320.644 305.924 C 322.934 302.089 325.248 298.28 327.582 294.506 C 318.629 295.484 296.055 293.725 295.528 295.375 Z M 285.577 333.212 C 283.888 332.973 283.005 331.779 282.786 331.977 C 282.566 332.175 283.064 333.428 284.261 334.404 C 286.701 336.385 297.768 339.804 300.353 342.411 C 300.609 342.67 300.855 342.926 301.081 343.179 C 302.653 339.589 304.225 336.14 305.79 332.863 C 300.362 333.738 288.734 333.662 285.577 333.212 Z M 275.039 357.793 C 274.703 360.411 288.588 362.227 290.417 365.191 C 290.813 365.83 291.058 366.577 291.151 367.36 C 293.6 361.089 296.048 354.997 298.493 349.201 C 291.19 352.027 275.377 355.145 275.039 357.793 Z M 268.513 364.949 C 268.95 363.953 264.303 362.964 262.877 361.273 C 262.063 360.306 260.887 358.983 260.141 357.624 C 259.484 360.601 258.833 363.621 258.187 366.637 C 262.673 366.109 268.106 365.882 268.513 364.949 Z M 319.413 232.393 C 323.178 230.879 342.931 239.063 344.269 237.487 C 345.398 236.158 335.846 228.904 332.836 226.519 C 330.841 224.938 328.53 224.92 327.911 223.451 C 327.217 221.808 327.448 217.813 329.671 216.844 C 332.967 215.408 349.049 221.735 350.365 220.688 C 351.207 220.017 347.983 217.404 346.044 215.821 C 343.717 213.923 338.617 212.282 336.906 210.3 C 336.273 209.567 335.674 208.734 335.32 207.918 C 330.012 215.369 324.184 224.04 318.331 233.098 C 318.639 232.802 319 232.56 319.413 232.393 Z M 348.14 201.387 C 352.27 201.178 359.835 204.8 360.568 203.935 C 361.201 203.187 356.894 199.605 354.825 197.848 C 352.85 196.171 349.309 195.483 348.476 193.561 C 348.151 192.809 348.01 191.684 348.068 190.514 C 344.827 194.851 341.606 199.257 338.501 203.512 C 341.337 202.395 345.357 201.528 348.14 201.387 Z" style="fill: rgb(166, 209, 48); stroke-width: 1.00413; paint-order: fill; stroke: rgb(0, 0, 0); stroke-linecap: round; vector-effect: non-scaling-stroke; transform-origin: 256.9px 338.655px;"/>
</svg>